# AST/ASF file generated using VICON BodyLanguage
# -----------------------------------------------
:version 1.10
:name VICON
:units
  mass 1.0
  length 0.45
  angle deg
:documentation
   .ast/.asf automatically generated from VICON data using
   VICON BodyBuilder and BodyLanguage model FoxedUp or BRILLIANT.MOD
:root
   order TX TY TZ RX RY RZ
   axis XYZ
   position 0 0 0  
   orientation 0 0 0 
:bonedata
  begin
     id 1 
     name lhipjoint
     direction 0.62366 -0.717238 0.310833 
     length 2.53602 
     axis 0 0 0  XYZ
  end
  begin
     id 2 
     name lfemur
     direction 0.34202 -0.939693 0  
     length 7.40817  
     axis 0 0 20  XYZ
    dof rx ry rz
    limits (-160.0 20.0)
           (-70.0 70.0)
           (-60.0 70.0)
  end
  begin
     id 3 
     name ltibia
     direction 0.34202 -0.939693 0   
     length 7.7045   
     axis 0 0 20   XYZ
    dof rx
    limits (-10.0 170.0)
  end
  begin
     id 4 
     name lfoot
     direction 0.0673888 -0.185149 0.980397   
     length 2.09456   
     axis -90 7.62852e-016 20   XYZ
    dof rx rz
    limits (-45.0 90.0)
           (-70.0 20.0)
  end
  begin
     id 5 
     name ltoes
     direction 1.53575e-011 -4.21994e-011 1   
     length 1.05543   
     axis -90 7.62852e-016 20   XYZ
    dof rx
    limits (-90.0 20.0)
  end
  begin
     id 6 
     name rhipjoint
     direction -0.489018 -0.800347 0.346851   
     length 2.27268  
     axis 0 0 0  XYZ 
  end
  begin
     id 7 
     name rfemur
     direction -0.34202 -0.939693 0   
     length 7.55487   
     axis 0 0 -20   XYZ
    dof rx ry rz
    limits (-160.0 20.0)
           (-70.0 70.0)
           (-70.0 60.0)
  end
  begin
     id 8 
     name rtibia
     direction -0.34202 -0.939693 0   
     length 7.78969   
     axis 0 0 -20   XYZ
    dof rx
    limits (-10.0 170.0)
 end
 begin
     id 9 
     name rfoot
     direction -0.0859318 -0.236096 0.967923   
     length 2.19143  
     axis -90 -7.62852e-016 -20   XYZ
    dof rx rz
    limits (-45.0 90.0)
           (-20.0 70.0)
  end
  begin
     id 10 
     name rtoes
     direction -1.53538e-011 -4.21989e-011 1   
     length 1.09845   
     axis -90 -7.62852e-016 -20   XYZ
    dof rx
    limits (-90.0 20.0)
  end
  begin
     id 11 
     name lowerback
     direction -0.00762546 0.998978 -0.0445553   
     length 1.98161   
     axis 0 0 0   XYZ
    dof rx ry rz
    limits (-20.0 45.0)
           (-30.0 30.0)
           (-30.0 30.0)
  end
  begin
     id 12 
     name upperback
     direction 0.0422361 0.998867 -0.0219156   
     length 1.97558   
     axis 0 0 0   XYZ
    dof rx ry rz
    limits (-20.0 45.0)
           (-30.0 30.0)
           (-30.0 30.0)
  end
  begin
     id 13 
     name thorax
     direction 0.0442465 0.999021 7.47603e-005   
     length 1.97799   
     axis 0 0 0   XYZ
    dof rx ry rz
    limits (-20.0 45.0)
           (-30.0 30.0)
           (-30.0 30.0)
  end
  begin
     id 14 
     name lowerneck
     direction 0.00312169 0.984641 0.174564   
     length 1.78995   
     axis 0 0 0   XYZ
    dof rx ry rz
    limits (-20.0 45.0)
           (-30.0 30.0)
           (-30.0 30.0)
  end
  begin
     id 15 
     name upperneck
     direction -0.0383028 0.985255 -0.166749   
     length 1.83053   
     axis 0 0 0   XYZ
    dof rx ry rz
    limits (-20.0 45.0)
           (-30.0 30.0)
           (-30.0 30.0)
  end
  begin
     id 16
     name head
     direction -0.0129546 0.997059 -0.0755386  
     length 1.84088  
     axis 0 0 0   XYZ
    dof rx ry rz
    limits (-20.0 45.0)
           (-30.0 30.0)
           (-30.0 30.0)
  end
  begin
     id 17 
     name lclavicle
     direction 0.912857 0.370519 -0.171488  
     length 3.51279  
     axis 0 0 0   XYZ
    dof ry rz
    limits (-20.0 10.0)
           (0.0 20.0)
  end
  begin
     id 18 
     name lhumerus
     direction 1 -4.48962e-011 3.64361e-027   
     length 4.95663   
     axis 180 -30 -90   XYZ
    dof rx ry rz
    limits (-60.0 90.0)
           (-90.0 90.0)
           (-90.0 90.0)
  end
  begin
     id 19
     name lradius
     direction 1 -4.48974e-011 5.97202e-027   
     length 3.38177   
     axis 180 -30 -90   XYZ
    dof rx
    limits (-10.0 170.0)
  end
  begin
     id 20
     name lwrist
     direction 1 -4.4896e-011 9.83288e-027   
     length 1.69088   
     axis -9.31221e-015 90 90   XYZ
    dof ry
    limits (-180.0 0.0)
 end
  begin
     id 21 
     name lhand
     direction 1 -4.4902e-011 1.96551e-026   
     length 0.662909   
     axis -1.25475e-014 90 90   XYZ
    dof rx rz
    limits (-90.0 90.0)
           (-45.0 45.0)
  end
  begin
     id 22 
     name lfingers
     direction 1 -4.48971e-011 3.93277e-026   
     length 0.534454   
     axis -2.50945e-014 90 90   XYZ
    dof rx
    limits (0.0 90.0)
  end
  begin
     id 23
     name lthumb
     direction 0.707107 -6.34933e-011 0.707107   
     length 0.767373   
     axis -90 45 -4.80359e-014   XYZ
    dof rx rz
    limits (-45.0 45.0)
           (-45.0 45.0)
  end
  begin
     id 24 
     name rclavicle
     direction -0.900919 0.395364 -0.178976   
     length 3.40627  
     axis 0 0 0   XYZ 
    dof ry rz
    limits (-10.0 20.0)
           (-20.0 0.0)
  end
  begin
     id 25 
     name rhumerus
     direction -1 -4.48969e-011 1.03875e-027  
     length 5.08365   
     axis 180 30 90   XYZ
    dof rx ry rz
    limits (-90.0 60.0)
           (-90.0 90.0)
           (-90.0 90.0)
  end
  begin
     id 26 
     name rradius
     direction -1 -4.48951e-011 5.02733e-027   
     length 3.35984   
     axis 180 30 90   XYZ
    dof rx
    limits (-10.0 170.0)
  end
  begin
     id 27 
     name rwrist
     direction -1 -4.49011e-011 9.82828e-027   
     length 1.67992   
     axis -9.31221e-015 -90 -90   XYZ
    dof ry
    limits (-180.0 0.0)
  end
  begin
     id 28
     name rhand
     direction -1 -4.48894e-011 1.96774e-026   
     length 0.820764   
     axis -1.25475e-014 -90 -90   XYZ
    dof rx rz
    limits (-90.0 90.0)
           (-45.0 45.0)
  end
  begin
     id 29
     name rfingers
     direction -1 -4.49095e-011 3.92833e-026   
     length 0.661721   
     axis -2.50945e-014 -90 -90   XYZ
    dof rx
    limits (0.0 90.0)
  end
  begin
     id 30
     name rthumb
     direction -0.707107 -6.34881e-011 0.707107   
     length 0.950103   
     axis -90 -45 4.80359e-014   XYZ
    dof rx rz
    limits (-45.0 45.0)
           (-45.0 45.0)
  end
:hierarchy
  begin
    root lhipjoint rhipjoint lowerback
    lhipjoint lfemur
    lfemur ltibia
    ltibia lfoot
    lfoot ltoes
    rhipjoint rfemur
    rfemur rtibia
    rtibia rfoot
    rfoot rtoes
    lowerback upperback
    upperback thorax
    thorax lowerneck lclavicle rclavicle
    lowerneck upperneck
    upperneck head
    lclavicle lhumerus
    lhumerus lradius
    lradius lwrist
    lwrist lhand lthumb
    lhand lfingers
    rclavicle rhumerus
    rhumerus rradius
    rradius rwrist
    rwrist rhand rthumb
    rhand rfingers
  end

#!OML:ASF I:\golf\golf\golf 2\Subject 1\2002-09-07\Subject1.ASF
:FULLY-SPECIFIED
:DEGREES
46
root -6.00986 17.8691 0.236498 -84.2521 85.3676 -101.262
lowerback -0.769189 2.20269 -1.16135
upperback 3.52262 2.93812 4.03747
thorax 3.79758 1.39962 4.95344
lowerneck -14.8333 -2.0919 1.39599
upperneck 39.2833 -0.249472 -3.56286
head 16.6458 0.186926 -1.70797
rclavicle -5.1684e-015 2.38542e-014
rhumerus -6.66547 -8.51781 -101.988
rradius 20.7608
rwrist -36.5391
rhand -12.2741 -8.99409
rfingers 7.12502
rthumb 13.7929 -38.5168
lclavicle -5.1684e-015 2.38542e-014
lhumerus -10.0141 -44.4191 109.82
lradius 22.9665
lwrist 38.4659
lhand -5.68096 72.0884
lfingers 7.12502
lthumb -159.861 78.9355
rfemur -27.7382 -0.508291 12.1207
rtibia 23.0395
rfoot -6.87438 -9.45537
rtoes -6.3875
lfemur -29.0521 9.64214 -7.49748
ltibia 27.0837
lfoot -10.0043 -1.07326
ltoes -19.5593
47
root -6.01105 17.8695 0.234231 -83.7993 85.4127 -100.836
lowerback -0.765326 2.2266 -1.17971
upperback 3.52919 2.97067 3.9901
thorax 3.80059 1.41537 4.9152
lowerneck -14.8478 -2.11833 1.36611
upperneck 39.2948 -0.309423 -3.4889
head 16.6536 0.167929 -1.68084
rclavicle -2.50469e-014 3.18055e-014
rhumerus -6.6901 -8.37735 -102.051
rradius 20.8809
rwrist -37.2373
rhand -12.6706 -8.86257
rfingers 7.12502
rthumb 13.4107 -38.4109
lclavicle -2.50469e-014 3.18055e-014
lhumerus -10.0526 -44.4753 109.838
lradius 23.0293
lwrist 38.7123
lhand -5.12237 73.1943
lfingers 7.12502
lthumb -159.324 77.887
rfemur -27.7811 -0.416278 12.0399
rtibia 23.043
rfoot -6.80298 -9.50304
rtoes -7.0654
lfemur -29.097 9.64321 -7.56108
ltibia 27.1278
lfoot -10.0254 -1.00898
ltoes -19.8685
48
root -6.01174 17.8681 0.230042 -83.1899 85.4484 -100.271
lowerback -0.797912 2.24086 -1.18035
upperback 3.53694 2.9894 3.96313
thorax 3.82665 1.42418 4.8899
lowerneck -14.8698 -2.13246 1.38272
upperneck 39.2989 -0.3329 -3.50118
head 16.6601 0.158583 -1.69399
rclavicle -6.36111e-015 -2.94201e-014
rhumerus -6.74224 -8.16918 -102.08
rradius 21.0291
rwrist -37.9006
rhand -12.907 -8.87377
rfingers 7.12502
rthumb 13.1828 -38.437
lclavicle -6.36111e-015 -2.94201e-014
lhumerus -9.99599 -44.2875 109.803
lradius 22.9834
lwrist 38.7923
lhand -4.85758 73.415
lfingers 7.12502
lthumb -159.07 77.6942
rfemur -27.8412 -0.360621 11.9769
rtibia 23.0426
rfoot -6.74031 -9.54188
rtoes -7.22754
lfemur -29.1544 9.67665 -7.62084
ltibia 27.1668
lfoot -10.0099 -1.0062
ltoes -20.0046
49
root -6.01275 17.8666 0.224338 -82.5011 85.4807 -99.6061
lowerback -0.82286 2.23642 -1.17663
upperback 3.55642 2.98299 3.94592
thorax 3.86269 1.4203 4.87165
lowerneck -14.8458 -2.11541 1.45153
upperneck 39.229 -0.313059 -3.56945
head 16.6162 0.164582 -1.73177
rclavicle 6.36111e-015 0
rhumerus -6.59243 -9.15478 -101.945
rradius 20.6171
rwrist -35.5509
rhand -11.2957 -9.20314
rfingers 7.12502
rthumb 14.7356 -38.6594
lclavicle 6.36111e-015 0
lhumerus -9.90107 -44.1371 109.708
lradius 22.9412
lwrist 38.97
lhand -4.69264 73.4192
lfingers 7.12502
lthumb -158.911 77.7076
rfemur -27.8798 -0.325757 11.9137
rtibia 23.0374
rfoot -6.73493 -9.52165
rtoes -6.89968
lfemur -29.2013 9.72585 -7.67842
ltibia 27.208
lfoot -10.0088 -1.05849
ltoes -19.6679
50
root -6.01477 17.8658 0.218795 -82.1653 85.5485 -99.3211
lowerback -0.860762 2.22403 -1.20095
upperback 3.56117 2.96666 3.89728
thorax 3.89178 1.41083 4.83603
lowerneck -14.7946 -2.10436 1.49728
upperneck 39.1611 -0.321986 -3.56598
head 16.566 0.165622 -1.73818
rclavicle -3.89618e-014 -7.31528e-014
rhumerus -6.58624 -9.21837 -101.922
rradius 20.5276
rwrist -34.8725
rhand -10.8032 -9.29521
rfingers 7.12502
rthumb 15.21 -38.7161
lclavicle -3.89618e-014 -7.31528e-014
lhumerus -9.8649 -44.2234 109.636
lradius 23.0358
lwrist 39.015
lhand -4.75665 73.6608
lfingers 7.12502
lthumb -158.973 77.4592
rfemur -27.9421 -0.31814 11.8114
rtibia 23.0233
rfoot -8.3475 -9.26734
rtoes 22.1917
lfemur -29.2911 9.70783 -7.77005
ltibia 27.2551
lfoot -10.0692 -1.08222
ltoes -19.0733
51
root -6.01619 17.865 0.214709 -81.7389 85.5564 -98.9324
lowerback -0.874172 2.22606 -1.17446
upperback 3.56161 2.9686 3.8714
thorax 3.90215 1.41257 4.79471
lowerneck -14.7992 -2.10226 1.46234
upperneck 39.1827 -0.335171 -3.49113
head 16.5789 0.16564 -1.70158
rclavicle -1.51076e-014 2.14687e-014
rhumerus -6.7406 -8.36884 -101.959
rradius 20.7977
rwrist -35.967
rhand -11.201 -9.39797
rfingers 7.12502
rthumb 14.8268 -38.8475
lclavicle -1.51076e-014 2.14687e-014
lhumerus -9.8634 -44.3383 109.639
lradius 23.1034
lwrist 38.8123
lhand -4.89018 73.8871
lfingers 7.12502
lthumb -159.101 77.2186
rfemur -27.992 -0.381286 11.8114
rtibia 23.0073
rfoot -8.33234 -9.20841
rtoes 22.0228
lfemur -29.3423 9.69369 -7.78634
ltibia 27.2884
lfoot -10.0976 -1.05774
ltoes -18.9461
